<svg width="22" height="30" viewBox="0 0 22 30" fill="none" xmlns="http://www.w3.org/2000/svg">
<path d="M5.49155 19.6133L4.33333 28.3334L10.4512 24.6627C10.6507 24.543 10.7505 24.4831 10.857 24.4597C10.9512 24.439 11.0488 24.439 11.143 24.4597C11.2495 24.4831 11.3493 24.543 11.5488 24.6627L17.6667 28.3334L16.5092 19.6096M16.9012 4.66525C17.1071 5.16328 17.5024 5.55915 18.0001 5.76582L19.7452 6.48873C20.2433 6.69503 20.639 7.09074 20.8453 7.58881C21.0516 8.08687 21.0516 8.64649 20.8453 9.14456L20.1229 10.8886C19.9165 11.3868 19.9162 11.947 20.1236 12.4451L20.8447 14.1885C20.9469 14.4352 20.9996 14.6996 20.9996 14.9667C20.9997 15.2337 20.9471 15.4982 20.8449 15.7449C20.7427 15.9916 20.5929 16.2158 20.4041 16.4046C20.2152 16.5934 19.991 16.7431 19.7443 16.8452L18.0004 17.5676C17.5023 17.7735 17.1065 18.1688 16.8998 18.6665L16.1769 20.4118C15.9707 20.9098 15.575 21.3055 15.0769 21.5119C14.5789 21.7182 14.0193 21.7182 13.5212 21.5119L11.7773 20.7895C11.2792 20.5837 10.7198 20.5841 10.2221 20.7906L8.47689 21.5125C7.97912 21.7183 7.42001 21.7182 6.92237 21.512C6.42473 21.3059 6.02925 20.9106 5.82281 20.4131L5.09972 18.6673C4.8938 18.1693 4.49854 17.7734 4.00085 17.5668L2.25566 16.8439C1.75783 16.6377 1.36226 16.2422 1.15588 15.7444C0.949508 15.2466 0.949228 14.6873 1.1551 14.1893L1.87746 12.4453C2.08325 11.9472 2.08283 11.3878 1.8763 10.89L1.15497 9.14353C1.0527 8.89685 1.00004 8.63243 1 8.36538C0.999957 8.09834 1.05253 7.8339 1.15472 7.58718C1.25691 7.34046 1.40671 7.1163 1.59557 6.9275C1.78442 6.7387 2.00862 6.58897 2.25537 6.48685L3.9993 5.76446C4.49687 5.55872 4.89249 5.16395 5.0993 4.6668L5.82218 2.92156C6.02848 2.42349 6.42418 2.02778 6.92222 1.82148C7.42027 1.61517 7.97987 1.61517 8.47792 1.82148L10.2218 2.54386C10.7199 2.74966 11.2793 2.74924 11.7771 2.54269L13.523 1.8226C14.021 1.61641 14.5804 1.61645 15.0784 1.82271C15.5763 2.02898 15.972 2.42458 16.1783 2.92251L16.9014 4.66828L16.9012 4.66525Z" stroke="#FAFAFA" stroke-width="2" stroke-linecap="round" stroke-linejoin="round"/>
</svg>
